<svg width="192" height="43" viewBox="0 0 192 43" fill="none" xmlns="http://www.w3.org/2000/svg">
<path fill-rule="evenodd" clip-rule="evenodd" d="M23.4373 20.9569C23.0358 22.012 22.4781 22.9978 21.7837 23.8799C22.2164 24.3441 22.6915 24.765 23.2027 25.1367C23.4896 25.3321 23.7877 25.5097 24.0954 25.6687C25.7727 26.4897 27.6453 26.8021 29.4912 26.569C29.19 25.6127 28.71 24.7253 28.0779 23.9559C26.8769 22.4888 25.2526 21.4473 23.4373 20.9803M6.27132 7.89139C6.49447 7.72771 6.72908 7.57571 6.96368 7.42957C8.24833 6.64547 9.67313 6.13097 11.1547 5.91616C12.6363 5.70135 14.145 5.79056 15.5925 6.17855C17.7479 6.78062 19.6846 8.01174 21.1657 9.72115C21.4801 9.45984 21.8108 9.21966 22.1556 9.00211C23.7136 7.99984 25.535 7.51013 27.3741 7.5991C28.5964 7.6862 29.778 8.08499 30.8105 8.75901C31.8431 9.43303 32.6938 10.3608 33.2849 11.4574C34.1012 12.9504 34.3556 14.6967 34.0001 16.3679C33.8478 17.0476 33.5531 17.6854 33.1362 18.2374C32.7193 18.7895 32.1903 19.2426 31.5855 19.5656C30.4833 20.1315 29.2141 20.2566 28.0264 19.9164C27.4406 19.7709 26.9045 19.4656 26.4752 19.0332C26.0459 18.6008 25.7395 18.0574 25.5888 17.4611C25.4556 16.9613 25.4548 16.4343 25.5865 15.934C25.7182 15.4338 25.9777 14.9783 26.3384 14.6142C26.6493 14.3435 27.0227 14.1584 27.4233 14.0765C27.8239 13.9947 28.2383 14.0188 28.6272 14.1465L29.1994 14.3043L28.8904 15.4735L28.3182 15.3157C28.1161 15.2387 27.8978 15.217 27.685 15.2529C27.4722 15.2888 27.2723 15.381 27.1051 15.5203C26.8955 15.7449 26.7479 16.0224 26.6775 16.3243C26.6072 16.6263 26.6165 16.9419 26.7046 17.239C26.8064 17.6306 27.0111 17.9862 27.2965 18.2675C27.5819 18.5488 27.9372 18.745 28.3239 18.8349C29.2316 19.097 30.2023 19.0053 31.0476 18.5777C31.5035 18.3312 31.9018 17.9866 32.2149 17.5678C32.528 17.149 32.7486 16.6659 32.8615 16.1516C33.1545 14.7577 32.9388 13.3023 32.2549 12.0595C31.7668 11.1304 31.0575 10.3419 30.1925 9.76667C29.3275 9.19146 28.3346 8.8481 27.3054 8.76827C25.705 8.69044 24.1196 9.11475 22.7621 9.98422C22.4614 10.1759 22.1729 10.3868 21.8981 10.6156C23.465 12.66 24.2592 15.2125 24.1354 17.806C24.0899 18.4901 23.9768 19.1678 23.7978 19.8287C25.8128 20.3695 27.6128 21.5383 28.9476 23.1725C29.7074 24.1097 30.2756 25.1931 30.6184 26.3585C32.5945 25.9532 34.412 24.9679 35.8484 23.5233C36.7951 22.5501 37.5423 21.3938 38.0464 20.122C38.5504 18.8502 38.8011 17.4885 38.7837 16.1166C38.6922 11.5392 35.774 7.27173 32.1577 4.758C26.7103 0.981558 20.2044 0.315127 14.0075 2.41964C12.0048 3.12115 7.88492 5.84533 6.26559 7.86801L6.27132 7.89139ZM22.6649 19.5832C22.8321 18.972 22.9395 18.3453 22.9853 17.7125C23.0082 17.3621 23.0082 17.0106 22.9853 16.6602C22.8403 14.7665 22.1672 12.9548 21.0455 11.4398C20.3885 12.1862 19.876 13.0531 19.5349 13.9945C18.8942 15.7912 18.8221 17.7482 19.3289 19.589C20.4323 19.4124 21.5558 19.4124 22.6591 19.589L22.6649 19.5832ZM21.0112 22.9796C21.5285 22.2869 21.9555 21.5283 22.2815 20.7231C21.4362 20.612 20.5805 20.612 19.7352 20.7231C20.0587 21.5314 20.4859 22.2921 21.0055 22.9855L21.0112 22.9796ZM10.5285 13.6613C9.19638 14.0971 8.06664 15.0163 7.35277 16.2452C6.81866 17.1447 6.51415 18.1668 6.46716 19.2178C6.42018 20.2688 6.63222 21.3151 7.08384 22.2606C7.81689 23.7147 8.96669 24.9057 10.3797 25.6746C10.6901 25.846 11.0113 25.9964 11.341 26.1247C12.2937 23.7151 14.0626 21.7358 16.3249 20.5477C16.9208 20.2493 17.5436 20.0105 18.1845 19.8345C17.6298 17.7755 17.7178 15.5908 18.4363 13.5853C18.8541 12.4457 19.4924 11.4039 20.3131 10.522C18.9901 8.97768 17.2568 7.85874 15.3235 7.30096C14.0248 6.95323 12.6713 6.87339 11.342 7.06611C10.0128 7.25882 8.73441 7.72023 7.58166 8.42337C3.74791 10.7968 1.59072 15.5144 1.28745 19.969C0.806803 26.6742 3.49615 32.7656 8.38846 37.1851C9.97918 38.6232 14.3794 40.9148 16.8742 41.324C16.6224 41.2071 16.3764 41.0843 16.136 40.9499C14.8279 40.2047 13.6785 39.2005 12.7549 37.996C11.8313 36.7914 11.1522 35.4108 10.7574 33.9348C10.1933 31.7273 10.2688 29.3999 10.9748 27.2354C8.84985 26.431 7.0924 24.8501 6.04244 22.7984C5.50596 21.6735 5.2542 20.429 5.31018 19.179C5.36616 17.929 5.7281 16.7132 6.36287 15.643C7.21676 14.1626 8.57279 13.0539 10.1737 12.5272C10.8264 12.3227 11.5146 12.2649 12.1911 12.3577C12.8677 12.4505 13.5166 12.6918 14.0933 13.065C15.122 13.7591 15.8605 14.82 16.1647 16.0406C16.3346 16.629 16.3461 17.2534 16.1981 17.848C16.0501 18.4426 15.748 18.9854 15.3235 19.4195C14.9628 19.7945 14.5106 20.0643 14.0137 20.201C13.5168 20.3377 12.9931 20.3363 12.4969 20.197C12.1092 20.0585 11.7632 19.8199 11.4925 19.5044C11.2217 19.1889 11.0355 18.8072 10.9519 18.3964L10.8089 17.8119L11.9533 17.5137L12.102 18.0983C12.1388 18.3149 12.2298 18.5181 12.3662 18.6881C12.5025 18.8582 12.6796 18.9893 12.8802 19.0687C13.1758 19.139 13.4841 19.1296 13.775 19.0415C14.0659 18.9533 14.3294 18.7895 14.5396 18.566C14.8196 18.279 15.0177 17.9193 15.1125 17.5258C15.2073 17.1323 15.1952 16.7198 15.0775 16.3328C14.8495 15.3881 14.2816 14.5657 13.4868 14.0296C13.0495 13.7523 12.5583 13.5757 12.0474 13.5121C11.5365 13.4485 11.0182 13.4994 10.5285 13.6613ZM20.2273 23.8974C19.5321 23.0148 18.9726 22.0292 18.5679 20.9745C17.9768 21.1345 17.402 21.3518 16.8513 21.6234C16.542 21.7784 16.242 21.9521 15.9529 22.1437C14.4102 23.2119 13.199 24.7089 12.4625 26.4579C13.4224 26.6703 14.4135 26.6902 15.3807 26.5164C17.2265 26.1883 18.9231 25.2715 20.2273 23.8974ZM19.615 34.6597C20.6469 35.6211 21.9894 36.1602 23.3858 36.1738C24.4154 36.198 25.4344 35.9575 26.3493 35.4743C27.2641 34.9911 28.0454 34.2808 28.6215 33.4087C29.4912 32.0343 29.9267 30.4201 29.8689 28.7846C29.8578 28.4241 29.8234 28.0648 29.7659 27.7089C27.2484 28.0714 24.6874 27.4966 22.5504 26.0896C21.9941 25.7066 21.4766 25.268 21.0055 24.7801C19.5417 26.311 17.6443 27.3335 15.581 27.7031C14.4074 27.9113 13.2046 27.8755 12.0448 27.5979C11.4051 29.5477 11.3316 31.6451 11.8331 33.6367C12.1888 34.9595 12.7985 36.1968 13.6266 37.2767C14.4547 38.3565 15.4847 39.2574 16.6568 39.9268C20.582 42.0898 25.6632 41.6631 29.6285 39.7515C35.5508 36.8285 39.3559 31.3977 40.672 24.8561C41.0954 22.7282 40.8379 17.6949 39.9396 15.2806C39.9396 15.5612 39.9796 15.8652 39.9854 16.1224C40.0085 17.6509 39.733 19.1687 39.175 20.5871C38.6169 22.0054 37.7875 23.2958 36.7353 24.3826C35.1429 25.987 33.1296 27.0855 30.9389 27.5453C31.0081 27.9529 31.0482 28.3651 31.059 28.7787C31.1222 30.6591 30.6188 32.5139 29.6171 34.0926C28.9332 35.1314 28.0046 35.9778 26.9167 36.554C25.8289 37.1301 24.6166 37.4175 23.3915 37.3897C21.7088 37.3692 20.0921 36.7181 18.8483 35.56C18.3484 35.0854 17.9555 34.5056 17.6966 33.8606C17.4378 33.2156 17.3192 32.5209 17.3491 31.8244C17.4202 30.5675 17.9489 29.3831 18.8311 28.504C19.247 28.0592 19.7729 27.7374 20.353 27.5728C20.9332 27.4081 21.5461 27.4067 22.127 27.5686C22.6263 27.7004 23.0821 27.9661 23.4473 28.3381C23.8124 28.7101 24.0737 29.1751 24.2041 29.6848C24.2789 30.0965 24.2488 30.5208 24.1165 30.9171C23.9842 31.3133 23.7542 31.6681 23.4488 31.9472L23.0368 32.3623L22.1899 31.4795L22.6076 31.0586C22.7718 30.9181 22.8976 30.7366 22.9728 30.5317C23.048 30.3269 23.07 30.1056 23.0368 29.8895C22.9505 29.592 22.7885 29.3233 22.5673 29.1107C22.3462 28.8981 22.0738 28.7493 21.7779 28.6794C21.3949 28.5732 20.9906 28.5764 20.6092 28.6888C20.2278 28.8011 19.8839 29.0183 19.615 29.3166C18.9403 29.9867 18.5326 30.8885 18.4706 31.8478C18.4503 32.3733 18.5421 32.8969 18.7397 33.3825C18.9374 33.8681 19.236 34.3039 19.615 34.6597ZM0 21.5298C0.020991 25.9638 1.3753 30.2841 3.87952 33.9056C4.56776 34.9189 5.34953 35.8625 6.2141 36.7233C6.48303 36.9688 6.7348 37.3079 7.19828 37.6996C7.34705 37.8282 7.40427 37.8399 7.55304 37.9685C10.1915 40.264 13.3542 41.8424 16.7483 42.5575C19.2717 43.1421 20.7537 43.0193 23.2599 42.9024C25.4092 42.6328 27.5085 42.0439 29.4912 41.1545C30.6678 40.6475 31.7864 40.0104 32.8271 39.2546L35.9857 36.5654L36.2832 36.2322L36.9069 35.5307L37.7366 34.4902C38.9793 32.8308 39.9672 30.9877 40.6663 29.0243C41.1382 27.7177 41.4906 26.3694 41.7191 24.9964C41.982 23.4333 42.0607 21.8436 41.9537 20.2613C41.7687 17.0136 40.869 13.8505 39.3216 11.0072L38.326 9.35286C38.1429 9.0898 37.9769 8.83258 37.7538 8.55782C37.5306 8.28307 37.4105 8.10184 37.1816 7.83878L36.575 7.11389C35.5457 5.96649 34.4072 4.92664 33.1762 4.00973L32.4037 3.4719C31.8912 3.11899 31.3602 2.79504 30.813 2.50149C30.5097 2.34365 30.2923 2.24427 29.9833 2.08643C28.508 1.33256 26.942 0.780256 25.3256 0.443736C20.8718 -0.488372 16.2431 0.0564072 12.1135 1.99874C10.9793 2.54787 9.89208 3.19318 8.86338 3.92788C8.57728 4.12664 8.37701 4.31371 8.1138 4.51247C7.15902 5.25511 6.27919 6.09328 5.4874 7.01451C5.28141 7.24834 5.08686 7.44126 4.9152 7.68094C3.35968 9.61423 2.13509 11.8022 1.29317 14.1523C1.18445 14.4855 1.07574 14.772 0.989907 15.0877C0.571863 16.4429 0.286274 17.8372 0.137328 19.2499L0.0514981 21.0037C0.0514981 21.1148 0.0514981 21.1615 0.0514981 21.2317C0.0206603 21.3281 0.00332249 21.4285 0 21.5298Z" fill="#F78D1E"/>
<path fill-rule="evenodd" clip-rule="evenodd" d="M185.012 13.6455H181.878V2.0478C184.793 2.0478 186.726 1.67165 188.513 3.58371C190.602 5.81967 190.456 13.6455 184.971 13.6455M180.049 15.3695C184.615 15.3695 189.066 16.1323 191.041 11.4514C192.243 8.61986 191.804 3.84492 189.401 1.91196C186.998 -0.0209945 183.633 0.334258 180.049 0.334258V15.3695Z" fill="#F78D1E"/>
<path fill-rule="evenodd" clip-rule="evenodd" d="M123.284 6.82335H122.103V1.93349L123.639 1.99618C125.729 2.18425 125.948 2.8843 125.948 4.8486C125.948 6.34273 124.726 6.82335 123.284 6.82335ZM120.317 15.3702H122.114V8.26523C122.657 8.38016 122.751 8.62047 123.702 9.89518C124.162 10.5116 124.538 11.055 124.998 11.661C125.938 12.8295 126.807 14.0542 127.599 15.3284H129.961C128.916 13.7402 125.081 9.05931 124.642 8.25478C125.124 8.23529 125.597 8.11857 126.032 7.91165C126.467 7.70472 126.856 7.41187 127.175 7.05071C127.495 6.68955 127.737 6.26755 127.889 5.8101C128.041 5.35265 128.099 4.86921 128.059 4.38887C128.059 -0.1353 123.556 0.293087 120.317 0.293087V15.3702Z" fill="#F78D1E"/>
<path fill-rule="evenodd" clip-rule="evenodd" d="M142.707 9.30928L144.995 4.23135L147.283 9.30928H142.707ZM149.801 15.3903H151.891L144.995 0.407227L138.089 15.3694H140.178L141.861 11.2945H148.13L149.801 15.3903Z" fill="#F78D1E"/>
<path fill-rule="evenodd" clip-rule="evenodd" d="M161.932 0.333984H164.001V13.2378H168.849V15.3484H164.001V15.3693H161.932V0.333984Z" fill="#F78D1E"/>
<path fill-rule="evenodd" clip-rule="evenodd" d="M102.251 0.407227V0.42812H107.976V2.52826H102.251V5.92399H107.976V8.02412H102.251V13.311H107.976V15.4216H102.251V15.4321H100.182V0.407227H102.251Z" fill="#F78D1E"/>
<path fill-rule="evenodd" clip-rule="evenodd" d="M80.466 11.6082L86.4634 0.062696L88.4172 15.2547L86.3589 15.5055L85.3558 5.6944L80.466 15.2025L76.0149 5.85112L74.9701 15.4323L72.9117 15.1816L74.8656 0L80.466 11.6082Z" fill="#F78D1E"/>
<path fill-rule="evenodd" clip-rule="evenodd" d="M56.0792 0.407227V0.42812H61.7945V2.52826H56.0792V5.92399H61.7945V8.02412H56.0792V13.311H61.7945V15.4216H56.0792V15.4321H54V0.407227H56.0792Z" fill="#F78D1E"/>
<rect x="53" y="22.5059" width="139" height="20" rx="3" fill="#3D3D3D"/>
<path d="M61.7261 29.4859V28.5559H66.5761V29.4859H64.7261V35.5059H63.5861V29.4859H61.7261ZM73.0707 30.6359C73.0707 29.9359 72.6707 29.4859 71.7807 29.4859H70.5207V31.8159H71.7807C72.6707 31.8159 73.0707 31.3259 73.0707 30.6359ZM69.3807 28.5559H71.7807C73.4307 28.5559 74.2407 29.5059 74.2407 30.6359C74.2407 31.4559 73.8007 32.3359 72.6307 32.6259L74.3507 35.5059H72.9907L71.3907 32.7259H70.5207V35.5059H69.3807V28.5559ZM82.039 35.5059L81.539 34.0859H78.629L78.129 35.5059H76.939L79.429 28.5459H80.749L83.239 35.5059H82.039ZM81.219 33.1559L80.089 29.9259L78.949 33.1559H81.219ZM88.6917 34.3359L90.7617 28.5559H91.9617L89.3517 35.5059H88.0317L85.4117 28.5559H86.6317L88.6917 34.3359ZM98.405 28.5459V29.4759H95.705V31.5159H98.105V32.4459H95.705V34.5759H98.405V35.5059H94.565V28.5459H98.405ZM101.459 28.5559H102.599V34.5859H104.949V35.5059H101.459V28.5559ZM116.22 30.1059H115.08C115.1 29.5959 114.81 29.3259 114.38 29.3259C113.93 29.3259 113.64 29.6259 113.64 29.9959C113.64 30.3759 113.85 30.6859 114.34 31.2159L116.18 33.0459L116.89 31.8759H118.12L117.22 33.4159C117.14 33.5559 117.05 33.6959 116.97 33.8259L118.66 35.5059H117.17L116.31 34.6459C115.64 35.3159 114.87 35.6359 113.9 35.6359C112.4 35.6359 111.4 34.8059 111.4 33.5059C111.4 32.5659 111.93 31.7759 113.03 31.3259C112.64 30.8559 112.5 30.4859 112.5 29.9959C112.5 29.0859 113.24 28.3959 114.43 28.3959C115.64 28.3959 116.29 29.1559 116.22 30.1059ZM113.9 34.6659C114.55 34.6659 115.08 34.4059 115.56 33.8959L113.72 32.0459C112.91 32.3659 112.54 32.8459 112.54 33.4659C112.54 34.1359 113.08 34.6659 113.9 34.6659ZM129.145 28.5459V29.4759H126.445V31.5159H128.845V32.4459H126.445V34.5759H129.145V35.5059H125.305V28.5459H129.145ZM136.269 35.5059L134.699 32.9859L133.229 35.5059H131.959L134.119 32.0359L131.949 28.5559H133.229L134.809 31.0959L136.289 28.5559H137.559L135.389 32.0359L137.549 35.5059H136.269ZM141.591 31.7559H142.851C143.741 31.7559 144.141 31.3259 144.141 30.6259C144.141 29.9059 143.741 29.4859 142.851 29.4859H141.591V31.7559ZM145.311 30.6259C145.311 31.6159 144.661 32.6859 142.851 32.6859H141.591V35.5059H140.451V28.5559H142.851C144.501 28.5559 145.311 29.4959 145.311 30.6259ZM151.888 28.5459V29.4759H149.188V31.5159H151.588V32.4459H149.188V34.5759H151.888V35.5059H148.048V28.5459H151.888ZM159.512 28.5459H160.652V35.5059H159.512L156.082 30.3159V35.5059H154.942V28.5459H156.082L159.512 33.7259V28.5459ZM168.489 33.5359C168.489 34.5759 167.639 35.5759 166.089 35.5759C164.699 35.5759 163.629 34.8159 163.629 33.5859H164.849C164.899 34.1559 165.299 34.6159 166.089 34.6159C166.889 34.6159 167.339 34.1859 167.339 33.5959C167.339 31.9159 163.649 33.0059 163.649 30.4459C163.649 29.2259 164.619 28.4659 166.039 28.4659C167.369 28.4659 168.309 29.1659 168.409 30.3559H167.149C167.109 29.8859 166.699 29.4559 165.979 29.4359C165.319 29.4159 164.809 29.7359 164.809 30.4059C164.809 31.9759 168.489 30.9959 168.489 33.5359ZM175.325 28.5459V29.4759H172.625V31.5159H175.025V32.4459H172.625V34.5759H175.325V35.5059H171.485V28.5459H175.325ZM183.069 33.5359C183.069 34.5759 182.219 35.5759 180.669 35.5759C179.279 35.5759 178.209 34.8159 178.209 33.5859H179.429C179.479 34.1559 179.879 34.6159 180.669 34.6159C181.469 34.6159 181.919 34.1859 181.919 33.5959C181.919 31.9159 178.229 33.0059 178.229 30.4459C178.229 29.2259 179.199 28.4659 180.619 28.4659C181.949 28.4659 182.889 29.1659 182.989 30.3559H181.729C181.689 29.8859 181.279 29.4559 180.559 29.4359C179.899 29.4159 179.389 29.7359 179.389 30.4059C179.389 31.9759 183.069 30.9959 183.069 33.5359Z" fill="white"/>
</svg>
